<svg xmlns="http://www.w3.org/2000/svg" viewBox="0 0 32 32" width="32" height="32">
  <defs>
    <!-- Gradient for the R -->
    <linearGradient id="rGradient" x1="0%" y1="0%" x2="100%" y2="100%">
      <stop offset="0%" style="stop-color:#800020;stop-opacity:1" />
      <stop offset="100%" style="stop-color:#b3002d;stop-opacity:1" />
    </linearGradient>
    
    <!-- Gradient for the film reel -->
    <linearGradient id="filmGradient" x1="0%" y1="0%" x2="100%" y2="100%">
      <stop offset="0%" style="stop-color:#a0002a;stop-opacity:1" />
      <stop offset="100%" style="stop-color:#5c0017;stop-opacity:1" />
    </linearGradient>
    
    <!-- Animation for spinning -->
    <style>
      .spinning {
        animation: spin 3s linear infinite;
        transform-origin: 16px 16px;
      }
      @keyframes spin {
        from { transform: rotate(0deg); }
        to { transform: rotate(360deg); }
      }
    </style>
  </defs>
  
  <!-- Background circle -->
  <circle cx="16" cy="16" r="15" fill="url(#rGradient)" stroke="#ffffff" stroke-width="1"/>
  
  <!-- Film reel (spinning) -->
  <g class="spinning">
    <!-- Outer film reel -->
    <circle cx="16" cy="16" r="8" fill="none" stroke="url(#filmGradient)" stroke-width="2"/>
    <!-- Inner circle -->
    <circle cx="16" cy="16" r="4" fill="url(#filmGradient)"/>
    <!-- Film holes -->
    <circle cx="16" cy="10" r="1" fill="#ffffff"/>
    <circle cx="16" cy="22" r="1" fill="#ffffff"/>
    <circle cx="10" cy="16" r="1" fill="#ffffff"/>
    <circle cx="22" cy="16" r="1" fill="#ffffff"/>
  </g>
  
  <!-- Letter R (bold and stylish) -->
  <g fill="#ffffff" font-family="Arial, sans-serif" font-weight="bold" font-size="14">
    <!-- R stem -->
    <rect x="12" y="8" width="3" height="16" fill="#ffffff"/>
    <!-- R top curve -->
    <path d="M 12 8 Q 15 8 15 11 Q 15 14 12 14" fill="none" stroke="#ffffff" stroke-width="2.5" stroke-linecap="round"/>
    <!-- R diagonal -->
    <path d="M 12 14 L 18 22" stroke="#ffffff" stroke-width="2.5" stroke-linecap="round"/>
  </g>
  
  <!-- Small decorative elements -->
  <circle cx="6" cy="6" r="1" fill="#ffffff" opacity="0.7"/>
  <circle cx="26" cy="6" r="1" fill="#ffffff" opacity="0.7"/>
  <circle cx="6" cy="26" r="1" fill="#ffffff" opacity="0.7"/>
  <circle cx="26" cy="26" r="1" fill="#ffffff" opacity="0.7"/>
</svg>
